<svg width="16" height="16" viewBox="0 0 16 16" fill="none" xmlns="http://www.w3.org/2000/svg">
<g clip-path="url(#clip0_173_10612)">
<path d="M10.6201 12.36C10.5535 12.1967 10.425 12.0664 10.2625 11.9977C10.1001 11.9289 9.91703 11.9274 9.75345 11.9933C8.63016 12.4432 7.37674 12.4432 6.25345 11.9933C6.17247 11.9601 6.08573 11.9431 5.99818 11.9433C5.91063 11.9436 5.82399 11.9611 5.7432 11.9948C5.66241 12.0286 5.58906 12.0779 5.52734 12.14C5.46561 12.202 5.41672 12.2757 5.38345 12.3567C5.35018 12.4376 5.33319 12.5244 5.33344 12.6119C5.3337 12.6995 5.35119 12.7861 5.38493 12.8669C5.41867 12.9477 5.46799 13.0211 5.53008 13.0828C5.59216 13.1445 5.6658 13.1934 5.74678 13.2267C7.19193 13.8123 8.8083 13.8123 10.2534 13.2267C10.4168 13.1601 10.5471 13.0315 10.6158 12.8691C10.6845 12.7066 10.6861 12.5236 10.6201 12.36ZM10.6268 3.80667C11.2558 4.23498 11.7705 4.81061 12.126 5.48339C12.4816 6.15618 12.6672 6.9057 12.6668 7.66667C12.6653 7.86265 12.6541 8.05844 12.6334 8.25333C12.6229 8.34088 12.6298 8.42964 12.6536 8.51455C12.6774 8.59945 12.7177 8.67884 12.7721 8.74817C12.8266 8.8175 12.8942 8.87543 12.9711 8.91864C13.0479 8.96185 13.1326 8.98949 13.2201 9C13.3077 9.01051 13.3964 9.00366 13.4813 8.97987C13.5662 8.95607 13.6456 8.91578 13.715 8.86131C13.7843 8.80683 13.8422 8.73923 13.8854 8.66237C13.9286 8.5855 13.9563 8.50088 13.9668 8.41333C13.9953 8.16553 14.0065 7.91603 14.0001 7.66667C14.0005 6.68902 13.7621 5.72609 13.3054 4.86164C12.8488 3.99718 12.1879 3.25741 11.3801 2.70667C11.3079 2.65592 11.2264 2.62001 11.1402 2.60102C11.0541 2.58202 10.965 2.58032 10.8782 2.59601C10.7913 2.61171 10.7085 2.64448 10.6344 2.69243C10.5603 2.74038 10.4965 2.80256 10.4467 2.87536C10.3968 2.94816 10.3619 3.03013 10.344 3.11652C10.326 3.20291 10.3254 3.29201 10.3422 3.37864C10.3589 3.46527 10.3927 3.54771 10.4416 3.62119C10.4904 3.69466 10.5534 3.75771 10.6268 3.80667ZM2.78678 8.99333C2.96162 8.97165 3.12077 8.88165 3.22944 8.74299C3.33812 8.60433 3.3875 8.42829 3.36678 8.25333C3.35722 8.05789 3.35722 7.86211 3.36678 7.66667C3.36262 6.90868 3.54317 6.16108 3.8928 5.48853C4.24243 4.81598 4.75063 4.23872 5.37345 3.80667C5.44685 3.75771 5.50981 3.69466 5.55866 3.62119C5.60752 3.54771 5.6413 3.46527 5.65806 3.37864C5.67481 3.29201 5.6742 3.20291 5.65626 3.11652C5.63833 3.03013 5.60342 2.94816 5.55356 2.87536C5.5037 2.80256 5.43989 2.74038 5.36582 2.69243C5.29176 2.64448 5.20891 2.61171 5.12208 2.59601C5.03525 2.58032 4.94617 2.58202 4.86 2.60102C4.77384 2.62001 4.6923 2.65592 4.62011 2.70667C3.81236 3.25741 3.15141 3.99718 2.69479 4.86164C2.23816 5.72609 1.99969 6.68902 2.00011 7.66667C1.99817 7.91634 2.01377 8.16584 2.04678 8.41333C2.06846 8.58817 2.15847 8.74732 2.29713 8.856C2.43579 8.96468 2.61183 9.01405 2.78678 8.99333ZM10.4468 6.33333C10.4721 6.33412 10.4973 6.32913 10.5204 6.31874C10.5435 6.30834 10.5639 6.29281 10.5801 6.27333C10.595 6.25355 10.6056 6.2309 10.6114 6.20681C10.6171 6.18272 10.6178 6.15771 10.6134 6.13333C10.4788 5.53419 10.1443 4.99865 9.66505 4.61468C9.1858 4.23071 8.59021 4.02113 7.97611 4.02036C7.36201 4.01958 6.7659 4.22766 6.28568 4.61042C5.80545 4.99318 5.46966 5.52786 5.33345 6.12667C5.32226 6.14949 5.31645 6.17458 5.31645 6.2C5.31645 6.22542 5.32226 6.25051 5.33345 6.27333C5.36627 6.30903 5.4117 6.33055 5.46011 6.33333H10.4468ZM6.33345 1.66667C6.33345 2.10869 6.50904 2.53262 6.8216 2.84518C7.13416 3.15774 7.55809 3.33333 8.00012 3.33333C8.44214 3.33333 8.86607 3.15774 9.17863 2.84518C9.49119 2.53262 9.66678 2.10869 9.66678 1.66667C9.66678 1.22464 9.49119 0.800716 9.17863 0.488155C8.86607 0.175595 8.44214 0 8.00012 0C7.55809 0 7.13416 0.175595 6.8216 0.488155C6.50904 0.800716 6.33345 1.22464 6.33345 1.66667ZM13.3334 13.6667C12.7115 13.6617 12.1069 13.8712 11.6212 14.2597C11.1355 14.6482 10.7985 15.1922 10.6668 15.8C10.6619 15.8239 10.6623 15.8487 10.6681 15.8724C10.6738 15.8962 10.6847 15.9184 10.6999 15.9375C10.7152 15.9566 10.7345 15.9721 10.7564 15.9829C10.7783 15.9937 10.8023 15.9995 10.8268 16H15.8001C15.8505 15.9975 15.8982 15.9761 15.9334 15.94C15.9434 15.9168 15.9485 15.8919 15.9485 15.8667C15.9485 15.8415 15.9434 15.8165 15.9334 15.7933C15.8029 15.1978 15.4751 14.6639 15.0032 14.2779C14.5314 13.8919 13.943 13.6765 13.3334 13.6667ZM11.6868 11.3333C11.6868 11.7754 11.8624 12.1993 12.1749 12.5118C12.4875 12.8244 12.9114 13 13.3534 13C13.7955 13 14.2194 12.8244 14.532 12.5118C14.8445 12.1993 15.0201 11.7754 15.0201 11.3333C15.0201 10.8913 14.8445 10.4674 14.532 10.1548C14.2194 9.84226 13.7955 9.66667 13.3534 9.66667C12.9114 9.66667 12.4875 9.84226 12.1749 10.1548C11.8624 10.4674 11.6868 10.8913 11.6868 11.3333ZM2.66678 13.6667C2.04485 13.6617 1.4402 13.8712 0.954539 14.2597C0.468878 14.6482 0.131839 15.1922 0.000114898 15.8C-0.00962025 15.8221 -0.0146484 15.8459 -0.0146484 15.87C-0.0146484 15.8941 -0.00962025 15.9179 0.000114898 15.94C0.0216301 15.9713 0.0531841 15.9943 0.0895542 16.0052C0.125924 16.0161 0.16493 16.0143 0.200115 16H5.16678C5.19248 16.0008 5.21801 15.9956 5.24136 15.9848C5.26472 15.9741 5.28527 15.958 5.30141 15.938C5.31755 15.918 5.32884 15.8945 5.3344 15.8694C5.33995 15.8443 5.33963 15.8183 5.33345 15.7933C5.19925 15.1873 4.86134 14.6456 4.37606 14.2586C3.89077 13.8716 3.28747 13.6627 2.66678 13.6667ZM1.04678 11.3333C1.04678 11.7754 1.22238 12.1993 1.53494 12.5118C1.8475 12.8244 2.27142 13 2.71345 13C3.15548 13 3.5794 12.8244 3.89196 12.5118C4.20452 12.1993 4.38012 11.7754 4.38012 11.3333C4.38012 10.8913 4.20452 10.4674 3.89196 10.1548C3.5794 9.84226 3.15548 9.66667 2.71345 9.66667C2.27142 9.66667 1.8475 9.84226 1.53494 10.1548C1.22238 10.4674 1.04678 10.8913 1.04678 11.3333Z" fill="#1A1A1A"/>
</g>
<defs>
<clipPath id="clip0_173_10612">
<rect width="16" height="16" fill="white"/>
</clipPath>
</defs>
</svg>
