<svg width="18" height="18" viewBox="0 0 18 18" fill="none" xmlns="http://www.w3.org/2000/svg">
<g clip-path="url(#clip0_173_10605)">
<path d="M5.29806 8C4.33378 8.02976 3.54508 8.41072 2.93199 9.14286H1.73556C1.24747 9.14286 0.836751 9.02232 0.503418 8.78125C0.170085 8.54018 0.00341797 8.1875 0.00341797 7.72321C0.00341797 5.62202 0.372466 4.57143 1.11056 4.57143C1.14628 4.57143 1.27574 4.63393 1.49895 4.75893C1.72217 4.88393 2.01235 5.01042 2.36949 5.13839C2.72663 5.26637 3.0808 5.33036 3.43199 5.33036C3.8308 5.33036 4.22663 5.26191 4.61949 5.125C4.58973 5.34524 4.57485 5.54167 4.57485 5.71429C4.57485 6.54167 4.81592 7.30357 5.29806 8ZM14.8606 13.6875C14.8606 14.4018 14.6433 14.9658 14.2088 15.3795C13.7743 15.7932 13.1969 16 12.4766 16H4.67306C3.95282 16 3.37544 15.7932 2.94092 15.3795C2.50639 14.9658 2.28913 14.4018 2.28913 13.6875C2.28913 13.372 2.29955 13.064 2.32038 12.7634C2.34122 12.4628 2.38288 12.1384 2.44538 11.7902C2.50788 11.442 2.58675 11.119 2.68199 10.8214C2.77723 10.5238 2.9052 10.2336 3.06592 9.95089C3.22663 9.66816 3.41116 9.42708 3.61949 9.22768C3.82782 9.02827 4.08229 8.86905 4.38288 8.75C4.68348 8.63095 5.01532 8.57143 5.37842 8.57143C5.43794 8.57143 5.56592 8.63542 5.76235 8.76339C5.95878 8.89137 6.17604 9.03423 6.41413 9.19197C6.65223 9.3497 6.97068 9.49256 7.36949 9.62054C7.7683 9.74851 8.17008 9.8125 8.57485 9.8125C8.97961 9.8125 9.38139 9.74851 9.7802 9.62054C10.179 9.49256 10.4975 9.3497 10.7356 9.19197C10.9737 9.03423 11.1909 8.89137 11.3873 8.76339C11.5838 8.63542 11.7118 8.57143 11.7713 8.57143C12.1344 8.57143 12.4662 8.63095 12.7668 8.75C13.0674 8.86905 13.3219 9.02827 13.5302 9.22768C13.7385 9.42708 13.9231 9.66816 14.0838 9.95089C14.2445 10.2336 14.3725 10.5238 14.4677 10.8214C14.5629 11.119 14.6418 11.442 14.7043 11.7902C14.7668 12.1384 14.8085 12.4628 14.8293 12.7634C14.8501 13.064 14.8606 13.372 14.8606 13.6875ZM5.7177 2.28571C5.7177 2.91667 5.49449 3.45536 5.04806 3.90179C4.60163 4.34821 4.06294 4.57143 3.43199 4.57143C2.80104 4.57143 2.26235 4.34821 1.81592 3.90179C1.36949 3.45536 1.14628 2.91667 1.14628 2.28571C1.14628 1.65476 1.36949 1.11607 1.81592 0.669643C2.26235 0.223214 2.80104 0 3.43199 0C4.06294 0 4.60163 0.223214 5.04806 0.669643C5.49449 1.11607 5.7177 1.65476 5.7177 2.28571ZM12.0034 5.71429C12.0034 6.66071 11.6686 7.46875 10.999 8.13839C10.3293 8.80804 9.52128 9.14286 8.57485 9.14286C7.62842 9.14286 6.82038 8.80804 6.15074 8.13839C5.4811 7.46875 5.14628 6.66071 5.14628 5.71429C5.14628 4.76786 5.4811 3.95982 6.15074 3.29018C6.82038 2.62054 7.62842 2.28571 8.57485 2.28571C9.52128 2.28571 10.3293 2.62054 10.999 3.29018C11.6686 3.95982 12.0034 4.76786 12.0034 5.71429ZM17.1463 7.72321C17.1463 8.1875 16.9796 8.54018 16.6463 8.78125C16.3129 9.02232 15.9022 9.14286 15.4141 9.14286H14.2177C13.6046 8.41072 12.8159 8.02976 11.8516 8C12.3338 7.30357 12.5748 6.54167 12.5748 5.71429C12.5748 5.54167 12.56 5.34524 12.5302 5.125C12.9231 5.26191 13.3189 5.33036 13.7177 5.33036C14.0689 5.33036 14.4231 5.26637 14.7802 5.13839C15.1373 5.01042 15.4275 4.88393 15.6507 4.75893C15.874 4.63393 16.0034 4.57143 16.0391 4.57143C16.7772 4.57143 17.1463 5.62202 17.1463 7.72321ZM16.0034 2.28571C16.0034 2.91667 15.7802 3.45536 15.3338 3.90179C14.8873 4.34821 14.3487 4.57143 13.7177 4.57143C13.0868 4.57143 12.5481 4.34821 12.1016 3.90179C11.6552 3.45536 11.432 2.91667 11.432 2.28571C11.432 1.65476 11.6552 1.11607 12.1016 0.669643C12.5481 0.223214 13.0868 0 13.7177 0C14.3487 0 14.8873 0.223214 15.3338 0.669643C15.7802 1.11607 16.0034 1.65476 16.0034 2.28571Z" fill="#1A1A1A"/>
</g>
<defs>
<clipPath id="clip0_173_10605">
<rect width="17.15" height="17.15" fill="white"/>
</clipPath>
</defs>
</svg>
