<svg width="56" height="56" viewBox="0 0 56 56" fill="none" xmlns="http://www.w3.org/2000/svg">
<path fill-rule="evenodd" clip-rule="evenodd" d="M35.5835 17.5C36.5118 17.5 37.402 17.8687 38.0584 18.5251C38.7147 19.1815 39.0835 20.0717 39.0835 21V35C39.0835 35.9283 38.7147 36.8185 38.0584 37.4749C37.402 38.1313 36.5118 38.5 35.5835 38.5H21.5835C20.6552 38.5 19.765 38.1313 19.1086 37.4749C18.4522 36.8185 18.0835 35.9283 18.0835 35V21C18.0835 20.0717 18.4522 19.1815 19.1086 18.5251C19.765 17.8687 20.6552 17.5 21.5835 17.5H35.5835ZM23.9168 25.6667C23.6074 25.6667 23.3107 25.7896 23.0919 26.0084C22.8731 26.2272 22.7502 26.5239 22.7502 26.8333V32.6667C22.7502 32.9761 22.8731 33.2728 23.0919 33.4916C23.3107 33.7104 23.6074 33.8333 23.9168 33.8333C24.2262 33.8333 24.523 33.7104 24.7418 33.4916C24.9606 33.2728 25.0835 32.9761 25.0835 32.6667V26.8333C25.0835 26.5239 24.9606 26.2272 24.7418 26.0084C24.523 25.7896 24.2262 25.6667 23.9168 25.6667ZM27.4168 24.5C27.1074 24.5 26.8107 24.6229 26.5919 24.8417C26.3731 25.0605 26.2502 25.3572 26.2502 25.6667V32.6667C26.2502 32.9761 26.3731 33.2728 26.5919 33.4916C26.8107 33.7104 27.1074 33.8333 27.4168 33.8333C27.7262 33.8333 28.023 33.7104 28.2418 33.4916C28.4606 33.2728 28.5835 32.9761 28.5835 32.6667V28.3967C28.9393 27.9953 29.5402 27.524 30.2087 27.2382C30.5972 27.0725 31.1817 27.0048 31.5877 27.1332C31.7223 27.1673 31.8423 27.2443 31.9295 27.3525C31.9902 27.4342 32.0835 27.6162 32.0835 28V32.6667C32.0835 32.9761 32.2064 33.2728 32.4252 33.4916C32.644 33.7104 32.9407 33.8333 33.2502 33.8333C33.5596 33.8333 33.8563 33.7104 34.0751 33.4916C34.2939 33.2728 34.4168 32.9761 34.4168 32.6667V28C34.4168 27.2183 34.2185 26.523 33.8055 25.9653C33.4255 25.4596 32.8936 25.0888 32.2877 24.9072C31.2353 24.577 30.0698 24.7602 29.2917 25.0938C29.0425 25.201 28.7999 25.3225 28.5648 25.4578C28.5159 25.189 28.3742 24.9459 28.1644 24.7709C27.9546 24.5958 27.6901 24.5 27.4168 24.5ZM23.9168 22.1667C23.6074 22.1667 23.3107 22.2896 23.0919 22.5084C22.8731 22.7272 22.7502 23.0239 22.7502 23.3333C22.7502 23.6428 22.8731 23.9395 23.0919 24.1583C23.3107 24.3771 23.6074 24.5 23.9168 24.5C24.2262 24.5 24.523 24.3771 24.7418 24.1583C24.9606 23.9395 25.0835 23.6428 25.0835 23.3333C25.0835 23.0239 24.9606 22.7272 24.7418 22.5084C24.523 22.2896 24.2262 22.1667 23.9168 22.1667Z" fill="white"/>
<rect x="0.583333" y="0.583333" width="54.8333" height="54.8333" rx="27.4167" stroke="#1A1A1A" stroke-width="1.16667"/>
</svg>
