<svg width="16" height="16" viewBox="0 0 16 16" fill="none" xmlns="http://www.w3.org/2000/svg">
<path d="M8.00016 1.33337C6.76249 1.33337 5.5755 1.82504 4.70033 2.70021C3.82516 3.57538 3.3335 4.76236 3.3335 6.00004C3.3335 7.58671 4.12683 8.98004 5.3335 9.82671V11.3334C5.3335 11.5102 5.40373 11.6798 5.52876 11.8048C5.65378 11.9298 5.82335 12 6.00016 12H10.0002C10.177 12 10.3465 11.9298 10.4716 11.8048C10.5966 11.6798 10.6668 11.5102 10.6668 11.3334V9.82671C11.8735 8.98004 12.6668 7.58671 12.6668 6.00004C12.6668 4.76236 12.1752 3.57538 11.3 2.70021C10.4248 1.82504 9.23784 1.33337 8.00016 1.33337ZM6.00016 14C6.00016 14.1769 6.0704 14.3464 6.19543 14.4714C6.32045 14.5965 6.49002 14.6667 6.66683 14.6667H9.3335C9.51031 14.6667 9.67988 14.5965 9.8049 14.4714C9.92992 14.3464 10.0002 14.1769 10.0002 14V13.3334H6.00016V14Z" fill="#1A1A1A"/>
</svg>
